<svg width="74" height="74" viewBox="0 0 74 74" fill="none" xmlns="http://www.w3.org/2000/svg">
<path d="M27.2839 18.0741C27.2839 13.1826 31.2679 9.19873 36.1593 9.19873C41.0506 9.19873 45.0347 13.1827 45.0347 18.0741V22.766H50.9444V16.8568H50.9001C50.236 9.26502 43.8837 3.28906 36.1373 3.28906C28.3906 3.28906 22.0386 9.26502 21.4187 16.8568H21.3743V22.766H27.2839V18.0741ZM63.0067 30.1588C63.0067 26.086 59.7089 22.766 55.6145 22.766H50.922V33.0358C50.922 34.6735 49.5939 36.0018 47.956 36.0018C46.3181 36.0018 44.9903 34.6735 44.9903 33.0358V22.766H27.2617V33.0358C27.2617 34.6735 25.9338 36.0018 24.2959 36.0018C22.658 36.0018 21.3302 34.6735 21.3302 33.0358V22.766H18.0766C14.004 22.766 10.684 26.0641 10.684 30.1588L4 62.2959C4 66.3904 7.29793 69.688 11.3923 69.688H62.2984C66.3707 69.688 69.6909 66.3903 69.6909 62.2959L63.0067 30.1588Z" fill="#191919"/>
</svg>
