<svg width="345" height="359" viewBox="0 0 345 359" fill="none" xmlns="http://www.w3.org/2000/svg">
<g filter="url(#filter0_d_327_9388)">
<rect x="7" y="18" width="331" height="9" rx="4" fill="#191919"/>
</g>
<g filter="url(#filter1_d_327_9388)">
<rect x="28" y="22" width="289" height="335" rx="4" fill="white"/>
</g>
<path opacity="0.1" d="M45 134.5H300.5" stroke="#191919" stroke-dasharray="4 4"/>
<path d="M28 148C29.8385 148 31.659 147.638 33.3576 146.934C35.0561 146.231 36.5995 145.2 37.8995 143.899C39.1995 142.599 40.2307 141.056 40.9343 139.358C41.6379 137.659 42 135.839 42 134C42 132.161 41.6379 130.341 40.9343 128.642C40.2307 126.944 39.1995 125.401 37.8995 124.101C36.5995 122.8 35.0561 121.769 33.3576 121.066C31.659 120.362 29.8385 120 28 120L28 134L28 148Z" fill="#F7F7F7"/>
<path d="M317 120C315.161 120 313.341 120.362 311.642 121.066C309.944 121.769 308.401 122.8 307.101 124.101C305.8 125.401 304.769 126.944 304.066 128.642C303.362 130.341 303 132.161 303 134C303 135.839 303.362 137.659 304.066 139.358C304.769 141.056 305.8 142.599 307.101 143.899C308.401 145.2 309.944 146.231 311.642 146.934C313.341 147.638 315.161 148 317 148L317 134L317 120Z" fill="#EBEBEB"/>
<g opacity="0.05">
<rect x="33" y="30" width="2.98921" height="42" fill="#191919"/>
<rect x="39.9746" y="30" width="5.97842" height="42" fill="#191919"/>
<rect x="48.9434" y="30" width="6.97482" height="42" fill="#191919"/>
<rect x="59.9023" y="30" width="4.98201" height="42" fill="#191919"/>
<rect x="75.8457" y="30" width="3.98561" height="42" fill="#191919"/>
<rect x="79.8301" y="30" width="3.98561" height="42" fill="#191919"/>
<rect x="71.8594" y="30" width="1.99281" height="42" fill="#191919"/>
<rect x="92.7832" y="30" width="2.98921" height="42" fill="#191919"/>
<rect x="89.7949" y="30" width="2.98921" height="42" fill="#191919"/>
<rect x="89.7949" y="30" width="0.996403" height="42" fill="#191919"/>
<rect x="99.7598" y="30" width="2.98921" height="42" fill="#191919"/>
<rect x="107.73" y="30" width="1.99281" height="42" fill="#191919"/>
<rect x="189.436" y="30" width="1.99281" height="42" fill="#191919"/>
<rect x="308.008" y="30" width="1.99281" height="42" fill="#191919"/>
<rect x="115.701" y="30" width="5.97842" height="42" fill="#191919"/>
<rect x="119.688" y="30" width="5.97842" height="42" fill="#191919"/>
<rect x="197.406" y="30" width="5.97842" height="42" fill="#191919"/>
<rect x="127.658" y="30" width="2.98921" height="42" fill="#191919"/>
<rect x="213.35" y="30" width="4.98201" height="42" fill="#191919"/>
<rect x="137.623" y="30" width="1.99281" height="42" fill="#191919"/>
<rect x="140.611" y="30" width="1.99281" height="42" fill="#191919"/>
<rect x="205.377" y="30" width="1.99281" height="42" fill="#191919"/>
<rect x="223.312" y="30" width="2.98921" height="42" fill="#191919"/>
<rect x="247.227" y="30" width="2.98921" height="42" fill="#191919"/>
<rect x="145.594" y="30" width="2.98921" height="42" fill="#191919"/>
<rect x="142.604" y="30" width="2.98921" height="42" fill="#191919"/>
<rect x="265.162" y="30" width="2.98921" height="42" fill="#191919"/>
<rect x="227.299" y="30" width="2.98921" height="42" fill="#191919"/>
<rect x="150.576" y="30" width="0.996403" height="42" fill="#191919"/>
<rect x="270.145" y="30" width="0.996403" height="42" fill="#191919"/>
<rect x="256.193" y="30" width="0.996403" height="42" fill="#191919"/>
<rect x="234.273" y="30" width="0.996403" height="42" fill="#191919"/>
<rect x="258.188" y="30" width="0.996403" height="42" fill="#191919"/>
<rect x="154.561" y="30" width="4.98201" height="42" fill="#191919"/>
<rect x="274.129" y="30" width="4.98201" height="42" fill="#191919"/>
<rect x="236.266" y="30" width="4.98201" height="42" fill="#191919"/>
<rect x="240.252" y="30" width="4.98201" height="42" fill="#191919"/>
<rect x="160.539" y="30" width="1.99281" height="42" fill="#191919"/>
<rect x="159.543" y="30" width="1.99281" height="42" fill="#191919"/>
<rect x="166.518" y="30" width="1.99281" height="42" fill="#191919"/>
<rect x="280.107" y="30" width="1.99281" height="42" fill="#191919"/>
<rect x="167.514" y="30" width="2.98921" height="42" fill="#191919"/>
<rect x="287.082" y="30" width="2.98921" height="42" fill="#191919"/>
<rect x="176.482" y="30" width="2.98921" height="42" fill="#191919"/>
<rect x="173.492" y="30" width="2.98921" height="42" fill="#191919"/>
<rect x="296.051" y="30" width="2.98921" height="42" fill="#191919"/>
<rect x="181.465" y="30" width="0.996403" height="42" fill="#191919"/>
<rect x="182.461" y="30" width="0.996403" height="42" fill="#191919"/>
<rect x="301.033" y="30" width="0.996403" height="42" fill="#191919"/>
<rect x="183.457" y="30" width="0.996403" height="42" fill="#191919"/>
<rect x="303.025" y="30" width="0.996403" height="42" fill="#191919"/>
<rect x="167.514" y="30" width="2.98921" height="42" fill="#191919"/>
<rect x="287.082" y="30" width="2.98921" height="42" fill="#191919"/>
</g>
<path d="M140.28 325.328H146.216C145.976 324.56 145.72 323.856 145.448 323.2L147.208 322.912C147.432 323.616 147.672 324.432 147.896 325.328H153.768V326.8H140.28V325.328ZM139.736 335.328H147.592C148.52 333.248 149.352 330.64 150.056 327.536L151.672 327.952C151.032 330.72 150.264 333.184 149.352 335.328H154.312V336.8H139.736V335.328ZM143.992 327.536C144.696 329.584 145.304 331.952 145.848 334.624L144.216 335.04C143.736 332.624 143.128 330.304 142.392 328.064L143.992 327.536ZM157.896 327.904V329.76H161.256V327.904H157.896ZM161.256 326.544V324.784H157.896V326.544H161.256ZM156.28 337.2L155.752 335.744C156.184 335.584 156.408 335.328 156.408 334.96V323.424H162.664V331.168H157.896V335.248C159.112 334.896 160.2 334.528 161.16 334.144C160.888 333.696 160.616 333.264 160.344 332.816L161.496 332.08C162.488 333.6 163.24 334.928 163.768 336.048L162.584 336.88C162.36 336.4 162.12 335.92 161.864 335.408C160.232 336.096 158.36 336.688 156.28 337.2ZM168.12 335.456H166.84L166.44 333.984L167.624 334.032C168.072 334.032 168.296 333.808 168.296 333.392V324.864H165.848V337.6H164.328V323.44H169.816V333.728C169.816 334.88 169.24 335.456 168.12 335.456ZM172.968 323.04C173.944 323.888 174.76 324.736 175.416 325.584L174.376 326.624C173.8 325.824 172.984 324.944 171.96 324.016L172.968 323.04ZM182.344 337.376C181.432 337.376 180.44 337.36 179.368 337.344C178.28 337.328 177.4 337.232 176.696 337.072C176.024 336.88 175.448 336.496 174.968 335.952C174.744 335.68 174.52 335.552 174.328 335.552C174.04 335.552 173.544 336.272 172.808 337.712L171.736 336.704C172.44 335.456 173.08 334.64 173.64 334.288V329.696H171.816V328.304H175.08V334.352C175.176 334.416 175.256 334.496 175.336 334.592C175.736 335.024 176.136 335.344 176.552 335.552C177.048 335.776 177.784 335.92 178.76 335.952C179.704 335.968 180.824 335.984 182.136 335.984C182.904 335.984 183.704 335.968 184.52 335.952C185.32 335.936 185.944 335.904 186.376 335.872L186.008 337.376H182.344ZM176.456 323.952H177.912C178.008 323.568 178.088 323.168 178.152 322.768L179.656 322.96C179.576 323.312 179.48 323.648 179.352 323.952H181.128V327.568C181.784 326.304 182.232 324.72 182.488 322.8L183.88 323.056C183.752 323.792 183.608 324.48 183.432 325.12H186.28V326.544H185.608C185.544 328.272 185.288 329.792 184.872 331.136C185.368 332 185.864 332.976 186.36 334.064L185.368 335.056C185.016 334.192 184.648 333.376 184.264 332.624C183.688 333.744 182.952 334.688 182.056 335.44L181.288 334.224C182.232 333.472 182.952 332.448 183.448 331.152C183 330.416 182.52 329.728 182.024 329.104L182.776 328.224C183.16 328.64 183.544 329.104 183.912 329.632C184.104 328.688 184.232 327.664 184.28 326.544H182.968C182.584 327.504 182.12 328.336 181.576 329.024L181.128 328.464V328.544H179.256L179.544 329.296H181.656V330.56H178.616C178.584 330.816 178.552 331.04 178.52 331.264H181.224C181.224 333.152 181.096 334.288 180.856 334.704C180.6 335.12 180.168 335.328 179.544 335.344H178.648L178.28 334.112H179.208C179.48 334.096 179.656 333.984 179.752 333.792C179.816 333.6 179.848 333.152 179.864 332.448H178.248C178.184 332.672 178.104 332.88 178.04 333.072C177.72 333.824 177.24 334.496 176.616 335.088L175.768 333.984C176.248 333.52 176.6 333.008 176.84 332.432C177.032 331.952 177.192 331.328 177.304 330.56H175.96V329.296H178.12L177.816 328.544H176.456V323.952ZM179.864 327.536V326.752H177.72V327.536H179.864ZM177.72 325.728H179.864V324.96H177.72V325.728ZM196.648 322.88H198.104V323.808H201.944V325.04H198.104V325.824H201.384V327.024H198.104V327.824H202.344V329.088H192.456V327.824H196.648V327.024H193.576V325.824H196.648V325.04H192.904V323.808H196.648V322.88ZM195.032 333.12V334.016H199.784V333.12H195.032ZM199.784 331.968V331.056H195.032V331.968H199.784ZM195.032 335.168V337.648H193.592V329.824H201.24V336.064C201.24 337.056 200.728 337.552 199.72 337.552H198.392L198.04 336.208L199.288 336.288C199.608 336.288 199.784 336.112 199.784 335.76V335.168H195.032ZM189.784 323.008C190.808 323.792 191.688 324.576 192.392 325.36L191.352 326.416C190.728 325.68 189.848 324.88 188.712 324.048L189.784 323.008ZM187.608 327.648H191.24V334.336C191.656 333.936 192.072 333.504 192.52 333.04L192.92 334.64C191.992 335.6 191 336.448 189.96 337.184L189.384 335.808C189.64 335.584 189.784 335.296 189.784 334.96V329.104H187.608V327.648Z" fill="white"/>
<defs>
<filter id="filter0_d_327_9388" x="0.6" y="15.6" width="343.8" height="21.8" filterUnits="userSpaceOnUse" color-interpolation-filters="sRGB">
<feFlood flood-opacity="0" result="BackgroundImageFix"/>
<feColorMatrix in="SourceAlpha" type="matrix" values="0 0 0 0 0 0 0 0 0 0 0 0 0 0 0 0 0 0 127 0" result="hardAlpha"/>
<feOffset dy="4"/>
<feGaussianBlur stdDeviation="3.2"/>
<feComposite in2="hardAlpha" operator="out"/>
<feColorMatrix type="matrix" values="0 0 0 0 0 0 0 0 0 0 0 0 0 0 0 0 0 0 0.2 0"/>
<feBlend mode="normal" in2="BackgroundImageFix" result="effect1_dropShadow_327_9388"/>
<feBlend mode="normal" in="SourceGraphic" in2="effect1_dropShadow_327_9388" result="shape"/>
</filter>
<filter id="filter1_d_327_9388" x="28" y="0" width="313" height="359" filterUnits="userSpaceOnUse" color-interpolation-filters="sRGB">
<feFlood flood-opacity="0" result="BackgroundImageFix"/>
<feColorMatrix in="SourceAlpha" type="matrix" values="0 0 0 0 0 0 0 0 0 0 0 0 0 0 0 0 0 0 127 0" result="hardAlpha"/>
<feOffset dx="12" dy="-10"/>
<feGaussianBlur stdDeviation="6"/>
<feComposite in2="hardAlpha" operator="out"/>
<feColorMatrix type="matrix" values="0 0 0 0 0 0 0 0 0 0 0 0 0 0 0 0 0 0 0.05 0"/>
<feBlend mode="normal" in2="BackgroundImageFix" result="effect1_dropShadow_327_9388"/>
<feBlend mode="normal" in="SourceGraphic" in2="effect1_dropShadow_327_9388" result="shape"/>
</filter>
</defs>
</svg>
